<svg xmlns="http://www.w3.org/2000/svg" width="1536" height="2304" viewBox="0 0 1536 2304">
  <defs>
    <linearGradient id="bg" x1="0" y1="0" x2="0" y2="1">
      <stop offset="0" stop-color="#0a0a1f"/>
      <stop offset="1" stop-color="#142341"/>
    </linearGradient>
    <linearGradient id="trail" x1="0" y1="0" x2="1" y2="0">
      <stop offset="0" stop-color="#00F5FF" stop-opacity="0.2"/>
      <stop offset="1" stop-color="#6C63FF" stop-opacity="0.35"/>
    </linearGradient>
  </defs>
  <rect width="100%" height="100%" fill="url(#bg)"/>
  <!-- Decorative star dots -->
  <g fill="#9cc9ff" opacity="0.6">
    <circle cx="120" cy="160" r="4"/><circle cx="280" cy="240" r="3"/>
    <circle cx="420" cy="120" r="2"/><circle cx="760" cy="220" r="3"/>
    <circle cx="980" cy="140" r="2"/><circle cx="1320" cy="180" r="3"/>
    <circle cx="220" cy="460" r="3"/><circle cx="980" cy="520" r="3"/>
    <circle cx="300" cy="980" r="3"/><circle cx="1240" cy="820" r="4"/>
    <circle cx="1340" cy="1280" r="3"/><circle cx="400" cy="1480" r="3"/>
    <circle cx="1160" cy="1680" r="3"/><circle cx="240" cy="1860" r="2"/>
  </g>
  <!-- Title -->
  <g font-family="Orbitron, Arial Black, sans-serif" font-weight="700" text-anchor="middle">
    <text x="768" y="240" font-size="220" fill="#FFB300">TENS</text>
    <text x="768" y="420" font-size="220" fill="#FFB300">AND TRAILS</text>
  </g>
  <!-- Stylized trail path -->
  <g>
    <path d="M -50 1150 C 200 1000, 420 1000, 650 1150 S 1000 1300, 1300 1150 S 1750 1000, 1600 900" fill="none" stroke="url(#trail)" stroke-width="140" stroke-linecap="round"/>
    <path d="M -50 1450 C 200 1300, 420 1300, 650 1450 S 1000 1600, 1300 1450 S 1750 1300, 1600 1200" fill="none" stroke="url(#trail)" stroke-width="80" stroke-linecap="round"/>
  </g>
  <!-- Game math plate -->
  <g>
    <rect x="168" y="1770" rx="36" ry="36" width="1200" height="260" fill="#0c1326" stroke="#FFB300" stroke-width="16"/>
    <text x="768" y="1935" font-family="Orbitron, Arial Black, sans-serif" font-size="200" fill="#f7e6b2" text-anchor="middle">6 + 4 = ?</text>
  </g>
</svg>


